<svg width="82" height="75" fill="none" xmlns="http://www.w3.org/2000/svg"><path fill-rule="evenodd" clip-rule="evenodd" d="M50.325 67.852c-3.995-23.39 5.856-38.766 9.249-43.24.3 1.303.519 2.893.246 4.189l1.42 1.278-1.42.284s-.426 2.842-1.137 3.695l.995.71-1.563.71s-1.421 2.843-2.842 4.548c0 0 7.957-1.421 9.236-7.673l-1.137-.853h1.705s-.834-4.409-1.52-5.915c1.484 1.538 2.922 3.383 3.51 5.205l3.694.71-2.416 1.421s1.705 4.69 1.421 6.678h2.416l-2.274 2.7s.426 5.4-.852 9.094c0 0 12.646-9.094 9.235-19.466l-2.557-.285 2.842-1.563s-6.536-6.962-8.81-7.672l-1.279 1.847.569-2.416s-.82-.307-2.063-.572c.68.023 1.334.11 1.92.288l1.99-1.847-.142 2.131s3.552.995 4.547 1.99l.994-1.421.569 2.415s3.41 2.131 5.115 4.547c0 0 0-11.51-7.53-13.925l-1.422 1.421.426-2.415s-6.962.852-8.383 1.847l.569 1.563-1.137-1.421s-.528.365-1.214 1.003c.365-1.085.503-1.856.503-1.856l-2.131-.568 1.99-.142c.425-2.132-1.848-10.373-1.848-10.373l-2.557 1.563.852-2.273C53.71-3.596 40.78 2.088 40.78 2.088c3.41.852 7.53 3.552 7.53 3.552l2.984-.568-.994 1.847c1.705.71 4.405 4.12 4.405 4.12l2.273-.994-1.137 3.126c1.792 2.074 2.645 5.902 3.016 8.241-2.274-3.513-6.852-5.115-6.852-5.115l-.995 2.273.142-2.273c-2.273-.853-11.651.142-11.651.142l1.137 3.126-2.132-1.421c-9.236 5.683-5.4 20.887-5.4 20.887 1.422-3.694 5.116-7.53 5.116-7.53v-3.553l1.847 1.42c.995-1.562 5.4-4.12 5.4-4.12l-.853-2.557 3.268 1.847c3.14-2.093 8.942-1.998 10.948-1.894-15.926 12.41-16.76 34.113-16.181 44.198-5.849-.6-11.9-.812-17.672-.32.482-5.685.635-20.987-10.302-29.488l.003-.008c1.3-.026 4.98.023 7.06 1.294l2.131-1.278-.568 1.705s2.7 1.563 3.41 2.7l1.137-.995v2.273s2.415 2.558 3.268 4.831c0 0 2.557-9.662-3.41-13.356l-1.421.995.852-1.99s-6.11-.71-7.53-.142l.141 1.421-.71-1.42s-2.834 1.02-4.35 3.16c.263-1.503.83-3.862 1.935-5.15l-.71-1.99 1.42.711s1.847-2.273 2.842-2.7l-.71-1.136 1.989.284s2.557-1.705 4.83-2.273c0 0-8.24-3.553-12.361 1.136l.568 1.421-1.705-.995s-1.42 5.258-1.137 6.679h1.28l-1.28.426s.09.543.344 1.295c-.502-.461-.912-.727-.912-.727l-.71.853.426-.995c-.995-.568-5.4-1.137-5.4-1.137l.285 1.421-.853-.852C0 34.058 0 41.447 0 41.447c1.137-1.564 3.126-2.842 3.126-2.842l.426-1.705.71.852c.711-.568 2.842-1.137 2.842-1.137v-1.42l1.28 1.278a4.14 4.14 0 0 1 1.026-.21c-.711.17-1.169.352-1.169.352l.284 1.563-.71-1.278c-1.421.568-5.684 4.973-5.684 4.973l1.847.994-1.705.143c-2.13 6.536 5.968 12.503 5.968 12.503-.852-2.415-.568-5.825-.568-5.825l-1.421-1.705 1.42-.142c-.141-1.137.995-4.121.995-4.121l-1.563-.995L9.52 42.3c.367-1.223 1.34-2.446 2.328-3.443-.538.802-1.05 3.87-1.05 3.87h.995l-.71.568c.852 3.978 5.968 4.83 5.968 4.83-.995-.994-1.847-2.841-1.847-2.841l-.995-.426.568-.427c-.426-.568-.71-2.415-.71-2.415l-.853-.142.853-.853c-.14-.838.03-1.882.238-2.727 2.175 2.886 8.77 13.212 5.644 28.858-6.546 1.1-12.51 3.302-17.107 7.118H76.87s-11.815-4.077-26.546-6.417Zm12.637-42.866-.727.83 1.04-.52a30.437 30.437 0 0 0-.313-.31Zm-50.89 13.648-.124.122.556.417-.431-.54Z" fill="#E40475"/></svg>