<svg width="205" height="206" viewBox="0 0 205 206" fill="none" xmlns="http://www.w3.org/2000/svg">
<g filter="url(#filter0_d_212_2)">
<circle cx="102.5" cy="99.5" r="92.5" fill="#C62A88"/>
<circle cx="102.5" cy="99.5" r="92" stroke="#E11D74"/>
</g>
<path d="M61.7035 140.892C61.7035 140.875 61.691 140.728 61.6658 140.451C61.6407 140.175 61.6113 139.806 61.5778 139.345C61.5442 138.883 61.5023 138.355 61.452 137.76C61.4101 137.156 61.364 136.527 61.3136 135.873C61.2717 135.211 61.2256 134.54 61.1753 133.861C61.1334 133.173 61.0956 132.519 61.0621 131.899C61.0286 131.27 60.9992 130.696 60.9741 130.176C60.9573 129.648 60.9489 129.211 60.9489 128.868C60.9489 128.356 61.0118 127.962 61.1376 127.685C61.2717 127.409 61.431 127.208 61.6155 127.082C61.8 126.948 61.9928 126.872 62.1941 126.855C62.3953 126.83 62.5714 126.818 62.7223 126.818C63.0325 126.818 63.2841 126.86 63.4769 126.943C63.6782 127.027 63.8333 127.153 63.9423 127.321C64.0597 127.48 64.1393 127.677 64.1813 127.912C64.2232 128.147 64.2441 128.411 64.2441 128.704L64.7975 143.659L72.9854 127.937C73.044 127.736 73.1447 127.543 73.2872 127.358C73.4297 127.174 73.6016 127.015 73.8029 126.881C74.0041 126.738 74.2263 126.629 74.4695 126.553C74.7126 126.47 74.9642 126.428 75.2241 126.428C75.526 126.428 75.7607 126.562 75.9284 126.83C76.1045 127.09 76.1926 127.434 76.1926 127.862C76.1926 128.163 76.1129 128.566 75.9536 129.069C75.7943 129.572 75.5805 130.138 75.3121 130.767C75.0522 131.396 74.7462 132.071 74.394 132.792C74.0418 133.513 73.6729 134.247 73.2872 134.993C72.9099 135.739 72.5242 136.481 72.1301 137.219C71.7444 137.949 71.3755 138.636 71.0233 139.282C70.9227 139.475 70.8472 139.676 70.7969 139.885C70.7466 140.095 70.7214 140.305 70.7214 140.514C70.7214 140.833 70.7843 141.143 70.9101 141.445C71.0359 141.747 71.2287 142.015 71.4887 142.25C71.757 142.485 72.0924 142.673 72.4948 142.816C72.9057 142.95 73.392 143.017 73.9538 143.017C74.088 143.017 74.2347 142.988 74.394 142.929C74.5617 142.87 74.7336 142.795 74.9097 142.703C75.0858 142.602 75.266 142.489 75.4505 142.363C75.635 142.237 75.8152 142.112 75.9913 141.986C76.3938 141.684 76.8088 141.34 77.2365 140.954L76.9472 143.558C76.2512 144.111 75.5553 144.556 74.8594 144.891C74.1718 145.218 73.5262 145.382 72.9225 145.382C72.3523 145.382 71.845 145.306 71.4006 145.155C70.9646 144.996 70.5915 144.774 70.2812 144.489C69.971 144.204 69.7362 143.86 69.5769 143.457C69.4176 143.055 69.3379 142.606 69.3379 142.112C69.3379 141.86 69.3631 141.588 69.4134 141.294C68.9187 142.451 68.4533 143.42 68.0173 144.199C67.5897 144.971 67.1747 145.591 66.7722 146.061C66.3697 146.522 65.9798 146.849 65.6025 147.042C65.2252 147.243 64.852 147.344 64.4831 147.344C63.98 147.344 63.5692 147.26 63.2505 147.092C62.9319 146.924 62.6762 146.694 62.4833 146.4C62.2989 146.099 62.1605 145.742 62.0683 145.331C61.9844 144.921 61.9215 144.476 61.8796 143.998C61.8461 143.52 61.8209 143.017 61.8042 142.489C61.7874 141.961 61.7538 141.428 61.7035 140.892ZM88.883 143.847C88.6902 144.116 88.4302 144.43 88.1032 144.791C87.7846 145.151 87.4241 145.495 87.0216 145.822C86.6191 146.149 86.1873 146.426 85.7261 146.652C85.265 146.878 84.8038 146.992 84.3426 146.992C83.7892 146.992 83.3281 146.815 82.9591 146.463C82.5902 146.103 82.2716 145.583 82.0033 144.904C81.802 145.139 81.5547 145.377 81.2612 145.621C80.9677 145.864 80.6449 146.086 80.2927 146.287C79.949 146.48 79.5884 146.639 79.2111 146.765C78.8338 146.891 78.4565 146.954 78.0791 146.954C77.6767 146.954 77.2826 146.874 76.8969 146.715C76.5196 146.547 76.1842 146.312 75.8907 146.011C75.5972 145.7 75.3625 145.327 75.1864 144.891C75.0103 144.447 74.9223 143.948 74.9223 143.394C74.9223 142.766 75.0103 142.12 75.1864 141.458C75.3625 140.795 75.635 140.078 76.0039 139.307C76.3728 138.535 76.7669 137.869 77.1862 137.307C77.6138 136.745 78.0791 136.255 78.5822 135.836C79.0853 135.416 79.6136 135.085 80.167 134.842C80.7288 134.59 81.2989 134.465 81.8775 134.465C82.0703 134.465 82.2213 134.502 82.3303 134.578C82.4393 134.653 82.5273 134.741 82.5944 134.842C82.6699 134.934 82.7411 135.026 82.8082 135.119C82.8753 135.211 82.9591 135.278 83.0597 135.32C83.1604 135.362 83.261 135.391 83.3616 135.408C83.4706 135.416 83.5796 135.42 83.6886 135.42C83.7808 135.42 83.8731 135.42 83.9653 135.42C84.0659 135.412 84.1624 135.408 84.2546 135.408C84.3804 135.408 84.4977 135.42 84.6068 135.446C84.7158 135.471 84.8122 135.525 84.896 135.609C84.9799 135.693 85.0428 135.81 85.0847 135.961C85.135 136.112 85.1602 136.318 85.1602 136.578C85.1602 136.98 85.1182 137.429 85.0344 137.923C84.9505 138.41 84.8583 138.913 84.7577 139.433C84.6571 139.944 84.5355 140.527 84.3929 141.181C84.2504 141.835 84.1791 142.392 84.1791 142.854C84.1791 143.248 84.2127 143.558 84.2797 143.784C84.3552 144.002 84.5103 144.111 84.7451 144.111C84.9212 144.111 85.1056 144.069 85.2985 143.986C85.4914 143.893 85.6842 143.776 85.8771 143.633C86.0783 143.491 86.2753 143.332 86.4682 143.155C86.6694 142.971 86.8581 142.782 87.0342 142.59C87.445 142.137 87.8601 141.625 88.2793 141.055L88.883 143.847ZM78.142 142.854C78.142 143.063 78.1546 143.269 78.1798 143.47C78.2133 143.663 78.2678 143.839 78.3433 143.998C78.4187 144.149 78.5194 144.275 78.6451 144.375C78.7709 144.468 78.9302 144.514 79.1231 144.514C79.4333 144.514 79.7142 144.38 79.9657 144.111C80.2173 143.843 80.4353 143.52 80.6198 143.143C80.8042 142.766 80.951 142.376 81.06 141.973C81.1773 141.571 81.2528 141.235 81.2864 140.967L82.2296 136.854C81.8859 136.854 81.5505 136.942 81.2235 137.118C80.8965 137.286 80.5862 137.517 80.2927 137.81C80.0077 138.104 79.7435 138.439 79.5004 138.816C79.2572 139.194 79.0182 139.659 78.7835 140.212C78.5487 140.766 78.381 141.252 78.2804 141.671C78.1881 142.091 78.142 142.485 78.142 142.854ZM91.8135 146.929C91.0421 146.929 90.363 146.786 89.776 146.501C89.1975 146.216 88.7111 145.834 88.317 145.357C87.923 144.879 87.6253 144.325 87.4241 143.696C87.2228 143.067 87.1222 142.413 87.1222 141.734C87.1222 141.248 87.2061 140.665 87.3738 139.986C87.5414 139.307 87.7217 138.716 87.9146 138.213C88.1158 137.701 88.359 137.215 88.6441 136.754C88.9375 136.292 89.2729 135.89 89.6502 135.546C90.0359 135.194 90.4636 134.917 90.9331 134.716C91.4027 134.507 91.9183 134.402 92.4801 134.402C92.9581 134.402 93.3983 134.477 93.8007 134.628C94.2116 134.771 94.5596 134.972 94.8447 135.232C95.1381 135.492 95.3645 135.802 95.5238 136.163C95.6915 136.515 95.7754 136.896 95.7754 137.307C95.7754 137.592 95.7376 137.873 95.6622 138.15C95.5867 138.426 95.44 138.753 95.222 139.131C95.004 139.5 94.7902 139.751 94.5805 139.885C94.3793 140.02 94.1487 140.087 93.8888 140.087C93.4863 140.087 93.2264 139.982 93.109 139.772C92.9161 139.445 92.8574 139.156 92.9329 138.904C92.9581 138.77 93.0335 138.46 93.1593 137.974C93.1761 137.907 93.1803 137.756 93.1719 137.521C93.1719 137.32 93.1509 137.152 93.109 137.018C93.0671 136.884 92.9748 136.817 92.8323 136.817C92.4885 136.817 92.195 136.9 91.9519 137.068C91.7087 137.227 91.4991 137.441 91.323 137.71C91.1553 137.969 90.9876 138.343 90.8199 138.829C90.6522 139.307 90.5306 139.709 90.4552 140.036C90.3881 140.363 90.3462 140.678 90.3294 140.98C90.3126 141.273 90.3043 141.52 90.3043 141.722C90.3043 142.024 90.3294 142.338 90.3797 142.665C90.4384 142.992 90.5474 143.294 90.7067 143.571C90.8744 143.839 91.0882 144.065 91.3482 144.25C91.6081 144.426 91.9435 144.514 92.3544 144.514C92.7568 144.514 93.2012 144.392 93.6875 144.149C94.1739 143.898 94.6602 143.583 95.1465 143.206C95.6412 142.828 96.1108 142.413 96.5552 141.961C96.9996 141.508 97.3811 141.08 97.6997 140.678L98.5675 142.137C97.9387 143.034 97.2595 143.835 96.53 144.539C96.2198 144.841 95.8802 145.134 95.5112 145.419C95.1507 145.704 94.7692 145.96 94.3667 146.187C93.9726 146.405 93.5576 146.585 93.1216 146.727C92.6939 146.862 92.2579 146.929 91.8135 146.929ZM110.566 143.847C110.373 144.116 110.113 144.43 109.786 144.791C109.468 145.151 109.107 145.495 108.705 145.822C108.302 146.149 107.871 146.426 107.409 146.652C106.948 146.878 106.487 146.992 106.026 146.992C105.472 146.992 105.011 146.815 104.642 146.463C104.273 146.103 103.955 145.583 103.686 144.904C103.485 145.139 103.238 145.377 102.944 145.621C102.651 145.864 102.328 146.086 101.976 146.287C101.632 146.48 101.272 146.639 100.894 146.765C100.517 146.891 100.14 146.954 99.7624 146.954C99.3599 146.954 98.9658 146.874 98.5801 146.715C98.2028 146.547 97.8674 146.312 97.5739 146.011C97.2805 145.7 97.0457 145.327 96.8696 144.891C96.6935 144.447 96.6055 143.948 96.6055 143.394C96.6055 142.766 96.6935 142.12 96.8696 141.458C97.0457 140.795 97.3182 140.078 97.6871 139.307C98.056 138.535 98.4501 137.869 98.8694 137.307C99.297 136.745 99.7624 136.255 100.265 135.836C100.769 135.416 101.297 135.085 101.85 134.842C102.412 134.59 102.982 134.465 103.561 134.465C103.754 134.465 103.904 134.502 104.013 134.578C104.122 134.653 104.211 134.741 104.278 134.842C104.353 134.934 104.424 135.026 104.491 135.119C104.559 135.211 104.642 135.278 104.743 135.32C104.844 135.362 104.944 135.391 105.045 135.408C105.154 135.416 105.263 135.42 105.372 135.42C105.464 135.42 105.556 135.42 105.649 135.42C105.749 135.412 105.846 135.408 105.938 135.408C106.064 135.408 106.181 135.42 106.29 135.446C106.399 135.471 106.495 135.525 106.579 135.609C106.663 135.693 106.726 135.81 106.768 135.961C106.818 136.112 106.843 136.318 106.843 136.578C106.843 136.98 106.801 137.429 106.718 137.923C106.634 138.41 106.542 138.913 106.441 139.433C106.34 139.944 106.219 140.527 106.076 141.181C105.934 141.835 105.862 142.392 105.862 142.854C105.862 143.248 105.896 143.558 105.963 143.784C106.038 144.002 106.194 144.111 106.428 144.111C106.604 144.111 106.789 144.069 106.982 143.986C107.175 143.893 107.367 143.776 107.56 143.633C107.762 143.491 107.959 143.332 108.151 143.155C108.353 142.971 108.541 142.782 108.717 142.59C109.128 142.137 109.543 141.625 109.963 141.055L110.566 143.847ZM99.8253 142.854C99.8253 143.063 99.8378 143.269 99.863 143.47C99.8965 143.663 99.951 143.839 100.026 143.998C100.102 144.149 100.203 144.275 100.328 144.375C100.454 144.468 100.613 144.514 100.806 144.514C101.117 144.514 101.397 144.38 101.649 144.111C101.901 143.843 102.119 143.52 102.303 143.143C102.487 142.766 102.634 142.376 102.743 141.973C102.861 141.571 102.936 141.235 102.97 140.967L103.913 136.854C103.569 136.854 103.234 136.942 102.907 137.118C102.58 137.286 102.269 137.517 101.976 137.81C101.691 138.104 101.427 138.439 101.184 138.816C100.94 139.194 100.701 139.659 100.467 140.212C100.232 140.766 100.064 141.252 99.9636 141.671C99.8714 142.091 99.8253 142.485 99.8253 142.854ZM120.075 144.111C119.27 144.581 118.553 144.992 117.924 145.344C117.295 145.696 116.733 145.99 116.239 146.224C115.752 146.459 115.316 146.635 114.931 146.753C114.553 146.87 114.209 146.929 113.899 146.929C113.262 146.929 112.7 146.736 112.214 146.35C111.728 145.964 111.321 145.411 110.994 144.69C110.667 143.96 110.42 143.08 110.252 142.049C110.093 141.017 110.013 139.856 110.013 138.565C110.013 138.062 110.034 137.525 110.076 136.955C110.118 136.385 110.176 135.819 110.252 135.257C110 135.223 109.803 135.194 109.661 135.169C109.527 135.135 109.38 135.106 109.22 135.081C109.07 135.047 108.873 135.014 108.629 134.98C108.395 134.947 108.051 134.905 107.598 134.854C107.397 134.829 107.242 134.783 107.133 134.716C107.024 134.641 106.944 134.557 106.894 134.465C106.843 134.364 106.814 134.263 106.806 134.163C106.797 134.054 106.793 133.962 106.793 133.886C106.793 133.718 106.877 133.593 107.045 133.509C107.204 133.416 107.414 133.349 107.673 133.307C107.925 133.266 108.202 133.245 108.504 133.245C108.814 133.236 109.107 133.236 109.384 133.245C109.669 133.253 109.921 133.261 110.139 133.27C110.365 133.27 110.52 133.261 110.604 133.245C110.83 132.113 111.115 131.018 111.459 129.962C111.811 128.897 112.201 127.954 112.629 127.132C113.065 126.302 113.539 125.64 114.05 125.145C114.562 124.642 115.098 124.39 115.66 124.39C116.021 124.39 116.348 124.491 116.641 124.692C116.943 124.893 117.199 125.162 117.408 125.497C117.618 125.832 117.777 126.226 117.886 126.679C118.004 127.124 118.062 127.589 118.062 128.075C118.062 128.486 118.004 128.922 117.886 129.383C117.769 129.836 117.61 130.302 117.408 130.779C117.207 131.249 116.968 131.727 116.691 132.213C116.423 132.7 116.138 133.182 115.836 133.66C115.912 133.668 116.037 133.672 116.213 133.672C116.39 133.672 116.591 133.681 116.817 133.697C117.052 133.706 117.303 133.718 117.572 133.735C117.84 133.744 118.1 133.752 118.352 133.76C118.603 133.769 118.838 133.777 119.056 133.785C119.274 133.794 119.454 133.802 119.597 133.811C119.764 133.819 119.886 133.903 119.961 134.062C120.037 134.221 120.075 134.423 120.075 134.666C120.075 134.959 119.991 135.198 119.823 135.383C119.655 135.567 119.471 135.659 119.27 135.659H114.44C114.197 135.995 113.95 136.326 113.698 136.653C113.455 136.972 113.228 137.261 113.019 137.521C112.985 138.041 112.956 138.552 112.931 139.055C112.922 139.273 112.914 139.5 112.906 139.734C112.897 139.961 112.889 140.187 112.88 140.414C112.872 140.64 112.864 140.858 112.855 141.068C112.855 141.277 112.855 141.47 112.855 141.646C112.855 142.099 112.897 142.481 112.981 142.791C113.065 143.101 113.187 143.357 113.346 143.558C113.505 143.751 113.698 143.893 113.924 143.986C114.159 144.069 114.419 144.111 114.704 144.111C114.88 144.111 115.098 144.069 115.358 143.986C115.627 143.902 115.916 143.789 116.226 143.646C116.545 143.495 116.876 143.319 117.22 143.118C117.572 142.917 117.916 142.699 118.251 142.464C118.595 142.221 118.922 141.969 119.232 141.709C119.542 141.441 119.823 141.168 120.075 140.892V144.111ZM116.05 128.189C116.05 128.096 116.042 127.996 116.025 127.887C116.016 127.769 115.991 127.66 115.949 127.56C115.907 127.459 115.84 127.375 115.748 127.308C115.664 127.241 115.543 127.208 115.383 127.208C115.165 127.208 114.943 127.4 114.717 127.786C114.499 128.172 114.285 128.666 114.075 129.27C113.874 129.866 113.681 130.524 113.497 131.245C113.321 131.966 113.157 132.666 113.006 133.345C113.132 133.362 113.258 133.379 113.384 133.396C113.509 133.404 113.639 133.416 113.773 133.433C114.025 133.006 114.285 132.544 114.553 132.05C114.83 131.547 115.077 131.056 115.295 130.578C115.513 130.092 115.694 129.639 115.836 129.22C115.979 128.801 116.05 128.457 116.05 128.189ZM126.741 144.25C126.439 144.526 126.061 144.824 125.609 145.143C125.164 145.453 124.682 145.742 124.162 146.011C123.642 146.27 123.11 146.488 122.565 146.665C122.028 146.841 121.517 146.929 121.031 146.929C120.595 146.929 120.226 146.87 119.924 146.753C119.63 146.627 119.391 146.455 119.207 146.237C119.022 146.019 118.888 145.755 118.804 145.445C118.729 145.126 118.691 144.778 118.691 144.401C118.691 143.872 118.75 143.256 118.867 142.552C119.102 141.193 119.253 140.43 119.32 140.263C119.437 139.894 119.672 139.076 120.024 137.81C120.309 136.754 120.486 136.066 120.553 135.747C120.595 135.538 120.712 135.349 120.905 135.182C121.081 135.031 121.278 134.909 121.496 134.817C121.722 134.716 121.953 134.645 122.188 134.603C122.431 134.553 122.649 134.527 122.842 134.527C123.194 134.527 123.433 134.595 123.559 134.729C123.684 134.854 123.747 135.026 123.747 135.244C123.747 135.429 123.705 135.697 123.621 136.049C123.538 136.393 123.433 136.787 123.307 137.232C123.181 137.668 123.022 138.196 122.829 138.816C122.636 139.428 122.477 139.99 122.351 140.502C122.225 141.005 122.121 141.499 122.037 141.986C121.953 142.464 121.911 142.896 121.911 143.281C121.911 143.659 121.953 143.96 122.037 144.187C122.121 144.405 122.292 144.514 122.552 144.514C122.854 144.514 123.19 144.409 123.559 144.199C123.927 143.99 124.301 143.738 124.678 143.445C125.055 143.143 125.424 142.833 125.785 142.514C126.145 142.195 126.464 141.923 126.741 141.697V144.25ZM121.119 131.069C121.119 130.876 121.16 130.658 121.244 130.415C121.328 130.172 121.462 129.945 121.647 129.736C121.84 129.518 122.091 129.337 122.401 129.195C122.72 129.044 123.114 128.968 123.584 128.968C123.877 128.968 124.154 129.002 124.414 129.069C124.674 129.136 124.9 129.241 125.093 129.383C125.286 129.518 125.437 129.698 125.546 129.924C125.663 130.151 125.722 130.419 125.722 130.729C125.722 131.014 125.676 131.291 125.584 131.559C125.491 131.828 125.345 132.067 125.143 132.276C124.942 132.486 124.686 132.658 124.376 132.792C124.074 132.918 123.709 132.98 123.282 132.98C122.544 132.98 121.999 132.809 121.647 132.465C121.295 132.113 121.119 131.647 121.119 131.069ZM133.583 137.232C133.826 137.718 134.006 138.234 134.123 138.779C134.249 139.315 134.312 139.923 134.312 140.602C134.312 141.097 134.258 141.596 134.149 142.099C134.04 142.602 133.88 143.088 133.671 143.558C133.469 144.028 133.218 144.468 132.916 144.879C132.623 145.289 132.283 145.646 131.897 145.948C131.52 146.25 131.105 146.488 130.652 146.665C130.199 146.841 129.717 146.929 129.206 146.929C128.468 146.929 127.835 146.769 127.307 146.451C126.787 146.124 126.359 145.7 126.024 145.18C125.688 144.661 125.441 144.074 125.282 143.42C125.131 142.766 125.055 142.103 125.055 141.432C125.055 140.326 125.194 139.374 125.47 138.577C125.747 137.772 126.141 137.076 126.653 136.49C127.172 135.894 127.805 135.429 128.552 135.093C129.298 134.75 130.136 134.578 131.067 134.578C131.864 134.578 132.61 134.704 133.306 134.955C134.002 135.198 134.652 135.529 135.255 135.949C135.868 136.36 136.434 136.879 136.953 137.508C137.482 138.137 137.972 138.737 138.425 139.307L138.186 141.08C137.96 140.778 137.653 140.451 137.268 140.099C136.882 139.747 136.471 139.357 136.035 138.93C135.608 138.502 135.184 138.141 134.765 137.848C134.346 137.546 133.985 137.294 133.683 137.093L133.583 137.232ZM129.696 144.514C129.981 144.514 130.258 144.371 130.526 144.086C130.795 143.793 131.029 143.428 131.231 142.992C131.432 142.548 131.591 142.015 131.709 141.395C131.834 140.766 131.897 140.208 131.897 139.722C131.897 139.336 131.868 138.98 131.809 138.653C131.751 138.317 131.663 138.028 131.545 137.785C131.428 137.542 131.277 137.349 131.092 137.206C130.908 137.064 130.686 136.993 130.426 136.993C130.082 136.993 129.755 137.139 129.445 137.433C129.134 137.726 128.862 138.104 128.627 138.565C128.392 139.018 128.208 139.521 128.074 140.074C127.94 140.627 127.873 141.252 127.873 141.948C127.873 142.3 127.906 142.631 127.973 142.942C128.04 143.252 128.145 143.524 128.288 143.759C128.43 143.986 128.619 144.17 128.854 144.313C129.088 144.447 129.369 144.514 129.696 144.514ZM136.702 144.3C136.702 143.747 136.735 143.109 136.802 142.388C136.87 141.659 136.953 140.862 137.054 139.999C137.155 139.127 137.268 138.343 137.394 137.647C137.519 136.951 137.641 136.355 137.758 135.861C137.851 135.475 138.027 135.152 138.287 134.892C138.555 134.632 138.915 134.502 139.368 134.502C139.821 134.502 140.135 134.641 140.311 134.917C140.488 135.194 140.576 135.563 140.576 136.024C140.576 136.15 140.563 136.322 140.538 136.54C140.513 136.749 140.479 136.984 140.437 137.244C140.404 137.496 140.366 137.76 140.324 138.037C140.282 138.305 140.24 138.615 140.198 138.967C140.165 139.311 140.135 139.571 140.11 139.747C140.085 139.915 140.073 140.028 140.073 140.087H140.324C140.374 139.994 140.454 139.848 140.563 139.646C140.672 139.437 140.798 139.139 140.94 138.753C141.083 138.368 141.234 138.028 141.393 137.735C141.561 137.433 141.716 137.148 141.858 136.879C142.001 136.603 142.131 136.36 142.248 136.15C142.366 135.94 142.454 135.785 142.513 135.685C142.781 135.232 143.087 134.922 143.431 134.754C143.774 134.586 144.156 134.502 144.575 134.502C144.994 134.502 145.326 134.678 145.569 135.031C145.82 135.383 145.946 135.869 145.946 136.49C145.946 136.582 145.925 136.737 145.883 136.955C145.85 137.173 145.804 137.433 145.745 137.735C145.686 138.037 145.619 138.426 145.544 138.904C145.477 139.382 145.414 139.81 145.355 140.187C145.296 140.565 145.246 140.938 145.204 141.307C145.171 141.676 145.154 142.015 145.154 142.325C145.154 142.845 145.217 143.273 145.342 143.608C145.477 143.944 145.682 144.111 145.959 144.111C146.059 144.111 146.202 144.074 146.386 143.998C146.663 143.898 146.839 143.81 146.915 143.734C147.283 143.449 147.476 143.311 147.493 143.319C147.518 143.327 147.799 143.16 148.336 142.816C149.007 142.388 149.807 141.864 150.738 141.244L150.725 144.061L150.097 144.539C150.046 144.581 149.652 144.799 148.914 145.193C147.849 145.763 147.183 146.107 146.915 146.224C146.261 146.518 145.854 146.686 145.695 146.727C145.275 146.862 144.835 146.929 144.374 146.929C143.913 146.929 143.523 146.597 143.204 145.935C142.894 145.264 142.739 144.287 142.739 143.005C142.739 142.501 142.772 141.961 142.84 141.382C142.907 140.795 142.99 140.166 143.091 139.496H142.89L139.595 146.036C139.419 146.388 139.23 146.623 139.029 146.74C138.819 146.866 138.576 146.929 138.299 146.929C137.955 146.929 137.679 146.857 137.469 146.715C137.259 146.564 137.096 146.367 136.979 146.124C136.87 145.872 136.794 145.591 136.752 145.281C136.719 144.962 136.702 144.635 136.702 144.3Z" fill="white"/>
<path d="M51.9062 138.438H35.3195V137.107H51.9062V138.438Z" fill="white"/>
<path d="M171.082 138.438H154.495V137.107H171.082V138.438Z" fill="white"/>
<path d="M57.2957 86.5556C57.1247 86.6777 56.9597 86.7327 56.8009 86.7205C56.1168 87.5146 55.3715 88.046 54.5652 88.3148C54.3208 88.6691 54.0521 88.9379 53.7589 89.1212C53.4534 89.8175 53.1358 90.404 52.8059 90.8804C52.4883 91.4791 52.1645 91.9616 51.8346 92.3282C51.2727 98.3512 53.4656 102.413 58.4136 104.515L58.5785 104.845L59.055 104.991L59.2199 105.321L59.6964 105.486C60.3561 105.926 60.8876 106.353 61.2907 106.769L62.4086 107.08C63.4226 108.021 64.119 108.98 64.4977 109.958C64.3633 111.815 63.5631 113.103 62.0971 113.824L62.262 116.225C62.1398 117.838 62.1887 119.175 62.4086 120.238C63.8502 120.14 65.0841 119.762 66.1104 119.102C69.3724 116.451 70.814 113.195 70.4353 109.334C70.142 108.858 69.9832 108.375 69.9588 107.887L69.6289 107.245L68.1812 104.35L67.8697 104.203C67.1855 103.397 66.5441 102.804 65.9455 102.426L65.3041 101.784C64.3633 101.344 63.612 100.813 63.05 100.19C60.8998 99.3469 59.1405 98.168 57.7722 96.653C57.76 95.8589 57.8149 95.2175 57.9371 94.7288C58.2548 94.2157 58.5724 93.7881 58.8901 93.446C58.9634 92.9573 59.0733 92.5297 59.2199 92.1632L59.055 91.6868L59.2199 91.3752C59.1833 90.7277 59.2321 90.1352 59.3665 89.5976C59.2077 88.5958 59.1588 87.7406 59.2199 87.032C58.5235 86.7266 57.8821 86.5678 57.2957 86.5556ZM61.1258 87.197C61.2846 87.6001 61.3396 88.0277 61.2907 88.4798V92.1632L61.9321 93.1345C62.5308 93.4888 62.9584 93.9164 63.2149 94.4173C63.2027 95.0648 63.2577 95.6512 63.3799 96.1766L63.8563 96.5064H64.3328L64.9742 96.3415H65.6156C65.7866 96.2193 65.9516 96.1643 66.1104 96.1766H66.5869C67.6864 95.9689 68.5966 95.8589 69.3174 95.8467C69.6106 94.8815 69.6106 93.9775 69.3174 93.1345C67.8513 89.1761 65.1758 87.0381 61.2907 86.7205L61.1258 87.197ZM55.3715 109.481C52.415 109.444 51.0222 110.251 51.1932 111.9C52.2684 116.042 54.5652 118.821 58.0837 120.238H58.5785L59.6964 120.55C59.9896 118.204 59.9896 116.28 59.6964 114.777C57.9371 113.714 56.9231 111.949 56.6543 109.481H55.3715ZM89.5123 86.8854H88.2662H87.4965H87.02H85.9388H85.4624C84.3262 87.0687 83.3427 87.1237 82.5119 87.0503H82.0538H79.2499H77.5456H77.0692C75.8475 87.0015 74.809 87.0503 73.9538 87.197L73.8072 87.5085L73.9538 88.2965V90.0008C73.9049 91.0392 74.0088 91.925 74.2653 92.658L74.7418 92.8046H75.1999H75.6764C76.4461 92.7558 77.118 92.8107 77.6922 92.9696C78.3153 92.7619 78.8834 92.658 79.3965 92.658L79.7081 92.9696L79.873 94.9854L79.7081 96.0666V103.855C79.818 104.808 79.818 105.639 79.7081 106.347V106.952C79.8669 107.734 79.8669 108.412 79.7081 108.986C79.9769 110.587 80.0318 111.937 79.873 113.036C80.0074 113.134 80.0563 113.238 80.0196 113.348V115.987C80.154 116.817 80.1051 117.593 79.873 118.314L80.4961 120.183C81.168 120.183 81.7361 120.079 82.2004 119.872C83.7275 120.177 85.0225 120.073 86.0854 119.56V118.479V117.379V116.921V116.298C85.9388 115.309 85.89 114.478 85.9388 113.806V112.413V111.314V110.379V109.444C85.9633 108.491 85.9083 107.661 85.7739 106.952L85.9388 106.347V105.413L85.7739 104.79L85.9388 103.855L85.7739 103.232V102.609V100.886V100.117V98.1008V97.4777V94.8205V94.3623V92.4931L86.2504 92.658L86.8734 92.4931L87.185 92.658H87.6431H88.1196H91.2166C91.6076 90.5567 91.5037 88.6325 90.9051 86.8854L90.1354 86.7388L89.5123 86.8854ZM101.589 86.9221C99.4632 87.6795 97.8017 88.773 96.6044 90.2024L96.1463 91.2836L95.9813 91.7417C95.8469 92.8413 95.6942 93.727 95.5232 94.399V95.4802L95.3582 95.9567L95.1933 96.4331V100.172C95.0223 102.004 95.0223 103.556 95.1933 104.826L95.0467 105.303C95.2055 105.694 95.2544 106.109 95.1933 106.549C95.1933 107.514 95.3033 108.345 95.5232 109.041V109.518L95.6698 111.68C95.9019 112.279 96.0058 112.804 95.9813 113.256L96.1463 114.172C96.6349 115.455 96.9404 116.494 97.0625 117.288L97.3924 117.141C98.7852 119.267 100.654 120.202 103 119.945L103.147 119.487C103.012 118.436 103.012 117.55 103.147 116.83C103.098 116.231 103.098 115.712 103.147 115.272L102.835 114.337C102.078 114.056 101.558 113.641 101.277 113.091C101.143 112.102 101.094 111.271 101.131 110.599C101.18 109.817 101.125 109.139 100.966 108.565L101.131 107.484L100.966 106.696V105.926V103.287L100.801 101.253C100.887 100.373 100.887 99.6462 100.801 99.072V98.5956L100.966 97.9725C100.856 97.8259 100.801 97.6732 100.801 97.5143V94.399L101.131 93.9408L101.277 93.3177C101.925 92.9757 102.34 92.5053 102.524 91.9067C102.805 88.7424 102.493 87.0809 101.589 86.9221ZM104.869 88.1682C105.065 89.4144 105.065 90.5078 104.869 91.4485C104.967 91.8028 105.016 92.1632 105.016 92.5297C105.944 93.2261 106.567 94.0569 106.885 95.022V105.614L106.574 106.402L106.885 106.86L106.739 107.648C106.91 109.664 106.958 111.271 106.885 112.468C106.445 113.226 105.926 113.794 105.327 114.172V114.795C105.071 116.909 105.334 118.729 106.115 120.257C108.449 119.524 110.208 118.229 111.393 116.372L111.723 114.795L112.016 113.879C112.016 112.78 112.175 111.839 112.493 111.057V110.599V109.664V109.188V108.565V108.107C112.725 106.237 112.774 104.729 112.639 103.58L112.804 102.957L112.639 102.334V101.711V101.088C112.444 100.257 112.395 99.5363 112.493 98.9254V98.3023L112.346 97.6793C112.077 96.6897 111.967 95.8039 112.016 95.022L111.87 94.5639L111.723 94.234L111.393 91.7417C110.978 91.3019 110.721 90.8377 110.624 90.349C109.011 88.6386 107.246 87.6001 105.327 87.2336L104.869 88.1682ZM120.318 86.5556C119.267 86.7632 118.32 86.8182 117.477 86.7205C117.025 87.0015 116.549 87.1603 116.048 87.197V87.6551C116.207 89.0845 116.262 90.2451 116.213 91.137L116.36 93.2078L116.213 93.8309V95.5718C116.396 97.0257 116.445 98.1863 116.36 99.0537V100.172C116.335 101.772 116.39 103.091 116.524 104.13V104.918L116.36 105.394L116.524 105.871C116.439 106.873 116.439 107.716 116.524 108.4L116.36 109.188C116.445 110.031 116.445 110.77 116.36 111.405V112.193L116.524 112.67V120.11H117.148H117.789H118.265H118.888H121.747L122.224 119.01V115.84L122.059 112.358L121.894 111.24C122.089 109.848 122.144 108.687 122.059 107.758V106.659C121.986 104.631 122.04 102.994 122.224 101.748L122.059 101.271V100.007C122.144 99.0293 122.144 98.1863 122.059 97.4777V96.3598V95.7367L121.894 95.0953V93.9958L122.059 93.2078L121.894 92.7313V92.2549V91.6135V90.9904V90.5139V89.8725L122.059 89.561C121.876 88.5836 121.821 87.7406 121.894 87.032C121.271 86.7877 120.745 86.6289 120.318 86.5556ZM126.64 86.7205C125.357 86.8427 124.728 87.4718 124.753 88.608C125.278 89.6098 125.382 90.6116 125.064 91.6135C127.862 92.9573 128.546 95.8589 127.117 100.318C126.066 100.611 125.382 101.143 125.064 101.913V102.389C125.247 103.623 125.302 104.674 125.229 105.541L125.541 106.494C126.408 106.494 127.092 106.812 127.593 107.447V107.923C127.776 108.656 127.831 109.341 127.758 109.976V116.152C127.648 117.74 127.697 119.059 127.905 120.11H128.711L129.169 119.945L129.499 120.11H129.976L130.599 119.945C131.759 120.079 132.712 120.079 133.457 119.945L133.604 119.469V119.01V118.369V117.893V114.722V113.788V113.146V112.358V111.882V110.617V107.447C133.445 107.056 133.341 106.634 133.292 106.182L132.816 105.083L132.504 104.918C131.869 104.283 131.234 103.861 130.599 103.653V103.012C133.506 100.801 134.459 97.7953 133.457 93.9958C133.396 89.4877 131.124 87.0626 126.64 86.7205ZM138.699 86.3723C138.332 86.8243 138.014 87.142 137.746 87.3252C137.953 88.7424 138.008 89.8969 137.911 90.7888V93.0062C137.801 94.2157 137.746 95.1625 137.746 95.8467V117.288C137.721 118.265 137.776 119.108 137.911 119.817L138.845 119.982L139.487 119.67H140.11L141.851 119.982H143.427H148.631L149.108 120.128H150.207H150.684H151.16C152.137 120.079 152.98 120.134 153.689 120.293C153.787 120.11 153.891 120.006 154.001 119.982L154.165 119.505V118.717L154.312 118.241V117.764V114.612L154.477 114.136C154.001 113.794 153.524 113.586 153.048 113.513L152.26 113.659H150.207H149.731H148.008H147.367L146.89 113.513H146.432L143.262 113.659L143.592 112.413V111.937L143.738 110.819V107.978V105.156L144.215 105.468H144.691H145.168H145.644C146.243 105.517 146.768 105.517 147.22 105.468L147.678 105.614C148.399 105.407 149.034 105.358 149.584 105.468L150.207 104.826L150.372 104.515V103.25V100.098L149.896 99.6218H148.796H148.32H147.843C146.426 99.5241 145.161 99.6279 144.05 99.9333L143.262 99.6218V98.9987L143.592 98.5223V97.8809C143.689 97.099 143.738 96.4698 143.738 95.9933V95.5168V95.0587C143.689 93.8125 143.744 92.7558 143.903 91.8883H144.526C145.113 91.9128 145.638 92.0227 146.102 92.2182C146.945 92.2426 147.684 92.1877 148.32 92.0533C149.114 92.1021 149.743 92.1021 150.207 92.0533C151.893 92.261 153.261 92.261 154.312 92.0533L154.789 91.2653L154.624 90.6239L154.789 89.5243C154.471 88.7669 154.471 88.0827 154.789 87.4718C154.605 87.2153 154.501 86.9526 154.477 86.6838H153.524C152.449 86.7449 151.557 86.6961 150.849 86.5372L150.061 86.6838H149.419C148.576 86.5861 147.843 86.5861 147.22 86.6838H146.744L145.644 86.5372L145.314 86.6838C144.581 86.525 143.952 86.4761 143.427 86.5372H142.95L142.474 86.3723H141.209H140.751H138.699Z" fill="white"/>
<path fill-rule="evenodd" clip-rule="evenodd" d="M107.965 67.2417C105.626 53.5445 111.395 44.5394 113.382 41.9192C113.558 42.6825 113.685 43.6135 113.526 44.3721L114.358 45.121L113.526 45.2874C113.526 45.2874 113.276 46.9517 112.86 47.4509L113.442 47.867L112.527 48.2831C112.527 48.2831 111.695 49.9473 110.863 50.9459C110.863 50.9459 115.523 50.1137 116.272 46.4524L115.606 45.9531H116.604C116.604 45.9531 116.116 43.3712 115.714 42.4889C116.583 43.3898 117.425 44.4705 117.769 45.5371L119.933 45.9532L118.518 46.7853C118.518 46.7853 119.517 49.5313 119.35 50.6963H120.765L119.434 52.2773C119.434 52.2773 119.683 55.4394 118.934 57.6029C118.934 57.6029 126.34 52.2773 124.343 46.2028L122.845 46.0364L124.51 45.121C124.51 45.121 120.682 41.0436 119.35 40.6276L118.602 41.7093L118.934 40.2947C118.934 40.2947 118.454 40.1146 117.726 39.9596C118.124 39.9729 118.508 40.0238 118.851 40.1283L120.016 39.0466L119.933 40.2947C119.933 40.2947 122.013 40.8772 122.596 41.4597L123.178 40.6276L123.511 42.0422C123.511 42.0422 125.508 43.2904 126.507 44.705C126.507 44.705 126.507 37.9648 122.096 36.5502L121.264 37.3823L121.514 35.9677C121.514 35.9677 117.437 36.467 116.604 37.0495L116.937 37.9648L116.272 37.1327C116.272 37.1327 115.963 37.3464 115.561 37.7201C115.774 37.0849 115.856 36.6334 115.856 36.6334L114.607 36.3005L115.772 36.2173C116.022 34.9691 114.691 30.1428 114.691 30.1428L113.193 31.0582L113.692 29.7268C109.947 25.3997 102.375 28.7282 102.375 28.7282C104.372 29.2275 106.785 30.8085 106.785 30.8085L108.533 30.4757L107.95 31.5574C108.949 31.9735 110.53 33.9706 110.53 33.9706L111.861 33.3881L111.196 35.2188C112.245 36.4338 112.744 38.675 112.962 40.0451C111.63 37.9878 108.949 37.0494 108.949 37.0494L108.366 38.3808L108.45 37.0494C107.118 36.5502 101.626 37.1327 101.626 37.1327L102.292 38.9633L101.044 38.1312C95.635 41.4597 97.8817 50.3634 97.8817 50.3634C98.7138 48.1999 100.877 45.9531 100.877 45.9531V43.8728L101.959 44.705C102.542 43.7896 105.121 42.2918 105.121 42.2918L104.622 40.794L106.536 41.8757C108.374 40.6502 111.772 40.706 112.947 40.7667C103.62 48.0343 103.131 60.7445 103.471 66.6506C100.046 66.2989 96.5021 66.1751 93.1217 66.4633C93.4041 63.1339 93.4936 54.1723 87.0886 49.1942L87.0904 49.1892C87.8517 49.174 90.0063 49.2027 91.2247 49.9473L92.4729 49.1984L92.1401 50.197C92.1401 50.197 93.7211 51.1123 94.1372 51.778L94.8029 51.1955V52.5269C94.8029 52.5269 96.2175 54.0247 96.7168 55.3561C96.7168 55.3561 98.2146 49.6977 94.7197 47.5342L93.8875 48.1167L94.3868 46.9517C94.3868 46.9517 90.8087 46.5356 89.9766 46.8685L90.0598 47.7006L89.6437 46.8685C89.6437 46.8685 87.9843 47.4659 87.096 48.72C87.2502 47.8392 87.5828 46.4576 88.2291 45.7035L87.8131 44.5385L88.6452 44.9546C88.6452 44.9546 89.727 43.6232 90.3094 43.3736L89.8934 42.7079L91.0583 42.8743C91.0583 42.8743 92.5562 41.8757 93.8876 41.5429C93.8876 41.5429 89.0612 39.4626 86.6481 42.2086L86.981 43.0407L85.9824 42.4582C85.9824 42.4582 85.1503 45.5371 85.3167 46.3692H86.0656L85.3167 46.6188C85.3167 46.6188 85.3697 46.9368 85.518 47.3771C85.2239 47.1071 84.9838 46.9517 84.9838 46.9517L84.5677 47.451L84.8174 46.8685C84.2349 46.5356 81.6553 46.2028 81.6553 46.2028L81.8217 47.0349L81.3225 46.5356C78.4933 47.451 78.4933 51.778 78.4933 51.778C79.159 50.8627 80.3239 50.1137 80.3239 50.1137L80.5736 49.1152L80.9896 49.6145C81.4057 49.2816 82.6539 48.9488 82.6539 48.9488V48.1167L83.4028 48.8656C83.5862 48.8 83.7904 48.7613 84.0041 48.7426C83.5875 48.8416 83.3196 48.9488 83.3196 48.9488L83.486 49.8641L83.0699 49.1152C82.2378 49.448 79.7415 52.0276 79.7415 52.0276L80.8232 52.6101L79.8247 52.6933C78.5765 56.5211 83.3196 60.016 83.3196 60.016C82.8203 58.6014 82.9867 56.6043 82.9867 56.6043L82.1546 55.6058L82.9867 55.5225C82.9035 54.8568 83.5692 53.1094 83.5692 53.1094L82.6539 52.5269L84.0685 52.2773C84.2834 51.561 84.8527 50.8448 85.4317 50.2612C85.1168 50.7304 84.8174 52.5269 84.8174 52.5269H85.3999L84.9838 52.8598C85.4831 55.1897 88.4787 55.689 88.4787 55.689C87.8962 55.1065 87.397 54.0247 87.397 54.0247L86.8145 53.7751L87.1473 53.5254C86.8977 53.1926 86.7313 52.1108 86.7313 52.1108L86.232 52.0276L86.7313 51.5284C86.6495 51.0376 86.7486 50.4262 86.8705 49.9313C88.1444 51.6218 92.0068 57.6685 90.1759 66.8313C86.3422 67.4756 82.8498 68.7652 80.1575 71H123.511C123.511 71 116.592 68.6123 107.965 67.2417ZM115.366 42.1382L114.94 42.6246L115.549 42.3202C115.488 42.2586 115.427 42.1979 115.366 42.1382ZM85.5633 50.1308C85.539 50.1545 85.5147 50.1783 85.4904 50.2025L85.8159 50.4466L85.5633 50.1308Z" fill="white"/>
<defs>
<filter id="filter0_d_212_2" x="0" y="1" width="205" height="205" filterUnits="userSpaceOnUse" color-interpolation-filters="sRGB">
<feFlood flood-opacity="0" result="BackgroundImageFix"/>
<feColorMatrix in="SourceAlpha" type="matrix" values="0 0 0 0 0 0 0 0 0 0 0 0 0 0 0 0 0 0 127 0" result="hardAlpha"/>
<feOffset dy="4"/>
<feGaussianBlur stdDeviation="5"/>
<feComposite in2="hardAlpha" operator="out"/>
<feColorMatrix type="matrix" values="0 0 0 0 0 0 0 0 0 0 0 0 0 0 0 0 0 0 0.05 0"/>
<feBlend mode="normal" in2="BackgroundImageFix" result="effect1_dropShadow_212_2"/>
<feBlend mode="normal" in="SourceGraphic" in2="effect1_dropShadow_212_2" result="shape"/>
</filter>
</defs>
</svg>
